<svg width="358" height="126" viewBox="0 0 358 126" fill="none" xmlns="http://www.w3.org/2000/svg">
<path fill-rule="evenodd" clip-rule="evenodd" d="M92.8631 105.327L91.1009 93.9132L89.3386 82.4949L95.6337 87.6862C103.418 75.9409 103.877 59.3585 95.5292 45.3468C94.6954 43.9564 93.7857 42.613 92.8041 41.3227C92.2686 40.5122 91.6605 39.7521 90.9873 39.0518C86.584 33.9293 80.9938 29.9623 74.7047 27.4972L83.7884 16.5967L78.5925 10.1881C87.1893 13.0574 95.0101 17.8672 101.449 24.2449C107.888 30.6226 112.773 38.397 115.724 46.9659C118.676 55.5347 119.615 64.668 118.47 73.6583C117.324 82.6485 114.125 91.2544 109.119 98.8093L116.59 104.973L104.731 105.15L92.8631 105.327Z" fill="#E6E6E6"/>
<path fill-rule="evenodd" clip-rule="evenodd" d="M2.22123 73.8012C1.08589 65.2433 1.85158 56.5403 4.46377 48.3121C7.07597 40.0838 11.4704 32.5329 17.3341 26.1969C23.1977 19.8609 30.3864 14.8958 38.388 11.6553C46.3896 8.4148 55.0074 6.97854 63.6275 7.44884L63.464 0.000152588L70.8491 8.30271L78.2342 16.6053L71.2124 24.8397L64.1907 33.0742L64.0226 25.3529C57.8627 24.7881 51.6542 25.5998 45.8466 27.7295C40.039 29.8591 34.7775 33.2533 30.4431 37.6665C26.1086 42.0797 22.8095 47.4014 20.7847 53.2463C18.7599 59.0913 18.0599 65.3134 18.7355 71.4622L4.11519 68.9187L2.22123 73.8012Z" fill="#28619B"/>
<path fill-rule="evenodd" clip-rule="evenodd" d="M10.0646 96.3832C8.88907 94.4234 7.82753 92.3973 6.8853 90.3152L-0.000198364 94.5574L3.23816 83.8567L6.47653 73.156L17.159 75.3089L27.837 77.4617L21.0242 81.6493C21.7896 83.3977 22.6633 85.0967 23.6403 86.7362C35.8534 107.229 61.5105 114.442 80.9362 102.887C82.3569 102.036 83.7222 101.095 85.0239 100.071L88.3167 110.681L98.6041 111.331C96.1458 113.415 93.5209 115.294 90.7557 116.949C62.8685 133.554 26.7333 124.352 10.0646 96.3832Z" fill="#E31E24"/>
<path d="M216.937 105.739H194.046L173.249 74.9907H166.495V105.739H147.819V21.9143H177.877C181.505 21.8704 185.13 22.1593 188.705 22.7772C191.774 23.3679 194.682 24.6066 197.235 26.4108C199.902 28.3083 202.081 30.8112 203.593 33.7141C205.171 36.6542 205.96 40.3952 205.96 44.9371C205.96 51.3563 204.674 56.5643 202.104 60.5612C199.515 64.5627 195.956 67.8439 191.757 70.0991L216.937 105.739ZM186.716 47.6032C186.764 45.7287 186.395 43.867 185.635 42.1529C184.881 40.6045 183.617 39.363 182.056 38.6375C180.817 38.0666 179.49 37.7088 178.132 37.5792C176.349 37.4093 174.558 37.332 172.768 37.3476H166.495V59.9071H171.859C174.088 59.9444 176.315 59.7649 178.509 59.3712C180.239 59.0669 181.848 58.2796 183.15 57.1003C184.338 56.0738 185.26 54.7759 185.839 53.3169C186.483 51.4785 186.779 49.5363 186.711 47.5895L186.716 47.6032Z" fill="#E6E6E6"/>
<path d="M286.491 105.74H268.414L239.614 47.2996V105.74H222.45V21.915H245.491L269.322 69.9409V21.915H286.491V105.74Z" fill="#28619B"/>
<path d="M324.748 107.257C319.025 107.257 314 106.637 309.673 105.395C305.514 104.233 301.472 102.69 297.596 100.785V80.8554H299.308C302.909 84.3194 307.105 87.1057 311.694 89.0808C315.849 90.9077 320.328 91.8808 324.866 91.9422C326.288 91.9081 327.707 91.7791 329.112 91.5561C330.581 91.3703 332.011 90.9486 333.345 90.3071C334.646 89.6869 335.784 88.7726 336.67 87.6364C337.578 86.4828 338.033 84.984 338.033 83.0946C338.064 82.1324 337.882 81.1751 337.5 80.2917C337.117 79.4082 336.544 78.6204 335.821 77.9849C334.298 76.6425 332.495 75.6571 330.543 75.1008C328.009 74.3514 325.284 73.6384 322.368 72.9662C319.61 72.3364 316.902 71.5076 314.265 70.4863C308.476 68.2002 304.324 65.1254 301.811 61.2617C299.298 57.3981 298.041 52.5534 298.041 46.7277C298.041 38.8884 301.006 32.5298 306.934 27.6518C312.863 22.7738 320.259 20.3515 329.121 20.3848C333.59 20.3834 338.044 20.8923 342.397 21.9018C346.48 22.8068 350.444 24.1864 354.206 26.0122V45.188H352.544C349.563 42.3815 346.127 40.1009 342.384 38.4433C338.528 36.6239 334.321 35.6705 330.057 35.65C328.575 35.6409 327.096 35.7701 325.638 36.0361C324.204 36.3568 322.821 36.8733 321.527 37.5713C320.316 38.2039 319.275 39.1201 318.493 40.2419C317.646 41.3874 317.195 42.7777 317.208 44.2024C317.208 46.3371 317.894 48.0448 319.247 49.2939C320.601 50.5429 323.222 51.6965 327.096 52.6957C329.616 53.3498 332.028 53.9629 334.363 54.5579C336.898 55.2218 339.388 56.0502 341.816 57.0378C347.006 59.1331 350.866 61.9581 353.398 65.5129C355.929 69.0677 357.192 73.7504 357.186 79.561C357.186 87.8817 354.267 94.5825 348.429 99.6634C342.591 104.744 334.697 107.276 324.748 107.257Z" fill="#E31E24"/>
</svg>
