<svg width="119" height="126" viewBox="0 0 119 126" fill="none" xmlns="http://www.w3.org/2000/svg">
<path fill-rule="evenodd" clip-rule="evenodd" d="M92.8631 105.327L91.1009 93.9132L89.3386 82.4949L95.6337 87.6862C103.418 75.9409 103.877 59.3585 95.5292 45.3468C94.6954 43.9564 93.7857 42.613 92.8041 41.3227C92.2686 40.5122 91.6605 39.7521 90.9873 39.0518C86.584 33.9293 80.9938 29.9623 74.7047 27.4972L83.7884 16.5967L78.5925 10.1881C87.1893 13.0574 95.0101 17.8672 101.449 24.2449C107.888 30.6226 112.773 38.397 115.724 46.9659C118.676 55.5347 119.615 64.668 118.47 73.6583C117.324 82.6485 114.125 91.2544 109.119 98.8093L116.59 104.973L104.731 105.15L92.8631 105.327Z" fill="#E6E6E6"/>
<path fill-rule="evenodd" clip-rule="evenodd" d="M92.8631 105.327L91.1009 93.9132L89.3386 82.4949L95.6337 87.6862C103.418 75.9409 103.877 59.3585 95.5292 45.3468C94.6954 43.9564 93.7857 42.613 92.8041 41.3227C92.2686 40.5122 91.6605 39.7521 90.9873 39.0518C86.584 33.9293 80.9938 29.9623 74.7047 27.4972L83.7884 16.5967L78.5925 10.1881C87.1893 13.0574 95.0101 17.8672 101.449 24.2449C107.888 30.6226 112.773 38.397 115.724 46.9659C118.676 55.5347 119.615 64.668 118.47 73.6583C117.324 82.6485 114.125 91.2544 109.119 98.8093L116.59 104.973L104.731 105.15L92.8631 105.327Z" fill="#E6E6E6"/>
<path fill-rule="evenodd" clip-rule="evenodd" d="M2.22123 73.8012C1.08589 65.2433 1.85158 56.5403 4.46377 48.3121C7.07597 40.0838 11.4704 32.5329 17.3341 26.1969C23.1977 19.8609 30.3864 14.8958 38.388 11.6553C46.3896 8.4148 55.0074 6.97854 63.6275 7.44884L63.464 0.000152588L70.8491 8.30271L78.2342 16.6053L71.2124 24.8397L64.1907 33.0742L64.0226 25.3529C57.8627 24.7881 51.6542 25.5998 45.8466 27.7295C40.039 29.8591 34.7775 33.2533 30.4431 37.6665C26.1086 42.0797 22.8095 47.4014 20.7847 53.2463C18.7599 59.0913 18.0599 65.3134 18.7355 71.4622L4.11519 68.9187L2.22123 73.8012Z" fill="#28619B"/>
<path fill-rule="evenodd" clip-rule="evenodd" d="M2.22123 73.8012C1.08589 65.2433 1.85158 56.5403 4.46377 48.3121C7.07597 40.0838 11.4704 32.5329 17.3341 26.1969C23.1977 19.8609 30.3864 14.8958 38.388 11.6553C46.3896 8.4148 55.0074 6.97854 63.6275 7.44884L63.464 0.000152588L70.8491 8.30271L78.2342 16.6053L71.2124 24.8397L64.1907 33.0742L64.0226 25.3529C57.8627 24.7881 51.6542 25.5998 45.8466 27.7295C40.039 29.8591 34.7775 33.2533 30.4431 37.6665C26.1086 42.0797 22.8095 47.4014 20.7847 53.2463C18.7599 59.0913 18.0599 65.3134 18.7355 71.4622L4.11519 68.9187L2.22123 73.8012Z" fill="#28619B"/>
<path fill-rule="evenodd" clip-rule="evenodd" d="M10.0646 96.3832C8.88907 94.4234 7.82753 92.3973 6.8853 90.3152L-0.000198364 94.5574L3.23816 83.8567L6.47653 73.156L17.159 75.3089L27.837 77.4617L21.0242 81.6493C21.7896 83.3977 22.6633 85.0967 23.6403 86.7362C35.8534 107.229 61.5105 114.442 80.9362 102.887C82.3569 102.036 83.7222 101.095 85.0239 100.071L88.3167 110.681L98.6041 111.331C96.1458 113.415 93.5209 115.294 90.7557 116.949C62.8685 133.554 26.7333 124.352 10.0646 96.3832Z" fill="#E31E24"/>
<path fill-rule="evenodd" clip-rule="evenodd" d="M10.0646 96.3832C8.88907 94.4234 7.82753 92.3973 6.8853 90.3152L-0.000198364 94.5574L3.23816 83.8567L6.47653 73.156L17.159 75.3089L27.837 77.4617L21.0242 81.6493C21.7896 83.3977 22.6633 85.0967 23.6403 86.7362C35.8534 107.229 61.5105 114.442 80.9362 102.887C82.3569 102.036 83.7222 101.095 85.0239 100.071L88.3167 110.681L98.6041 111.331C96.1458 113.415 93.5209 115.294 90.7557 116.949C62.8685 133.554 26.7333 124.352 10.0646 96.3832Z" fill="#E31E24"/>
</svg>
